<svg xmlns="http://www.w3.org/2000/svg" xmlns:xlink="http://www.w3.org/1999/xlink" viewBox="0,0,256,256" width="48px" height="48px" fill-rule="nonzero"><g fill="#5fb5fd" fill-rule="nonzero" stroke="none" stroke-width="1" stroke-linecap="butt" stroke-linejoin="miter" stroke-miterlimit="10" stroke-dasharray="" stroke-dashoffset="0" font-family="none" font-weight="none" font-size="none" text-anchor="none" style="mix-blend-mode: normal"><g transform="scale(4,4)"><path d="M32,8c-6.168,0 -11.69578,2.99586 -15.17578,7.63086c1.383,-0.469 2.99798,-0.80078 4.83398,-0.80078c0.847,0 1.71036,0.06903 2.56836,0.20703c1.913,0.308 3.38459,1.11036 4.68359,1.81836c1.301,0.709 2.14684,1.14453 3.08984,1.14453c0.943,0 1.78884,-0.43553 3.08984,-1.14453c1.299,-0.708 2.77059,-1.51036 4.68359,-1.81836c0.858,-0.138 1.72136,-0.20703 2.56836,-0.20703c1.836,0 3.45098,0.33178 4.83398,0.80078c-3.48,-4.635 -9.00678,-7.63086 -15.17578,-7.63086zM53,11c0,0 -4.99783,0.64755 -5.86133,7.81445c-1.27435,-0.54791 -2.88184,-0.98437 -4.79687,-0.98437c-0.662,0 -1.3598,0.05192 -2.0918,0.16992c-3.106,0.5 -5.045,3 -8.25,3c-3.205,0 -5.144,-2.5 -8.25,-3c-0.731,-0.118 -1.4298,-0.16992 -2.0918,-0.16992c-3.669,0 -6.23597,1.59744 -7.41797,2.52344c-0.485,1.293 -0.83825,2.6505 -1.03125,4.0625c1.576,0.868 5.80459,2.86813 12.55859,3.70313c1.848,-0.749 3.89042,-1.11914 6.23242,-1.11914c2.342,0 4.38442,0.37014 6.23242,1.11914c6.754,-0.836 10.98159,-2.83512 12.55859,-3.70312c-0.12315,-0.90037 -0.31828,-1.77677 -0.56445,-2.63086c6.14074,-1.14194 7.77344,-6.78516 7.77344,-6.78516c0,0 -2.40222,-0.53366 -4.85156,0.00391c0.22481,-2.12718 -0.14844,-4.00391 -0.14844,-4.00391zM25,22.5c1.406,0 2.37391,0.54881 3.00391,1.13281c0.626,0.58 0.2835,1.61752 -0.5625,1.72852c-0.601,0.079 -1.40041,0.13867 -2.44141,0.13867c-1.179,0 -2.04792,-0.23267 -2.66992,-0.51367c-0.773,-0.349 -0.78639,-1.43555 -0.02539,-1.81055c0.705,-0.349 1.64531,-0.67578 2.69531,-0.67578zM39,22.5c1.05,0 1.99031,0.32583 2.69531,0.67383c0.76,0.376 0.74661,1.4635 -0.02539,1.8125c-0.622,0.281 -1.49092,0.51367 -2.66992,0.51367c-1.041,0 -1.84136,-0.05967 -2.44336,-0.13867c-0.845,-0.111 -1.18655,-1.14952 -0.56055,-1.72852c0.631,-0.584 1.59791,-1.13281 3.00391,-1.13281zM11.10742,26.66797c-2.569,2.775 -4.09375,6.33969 -4.09375,9.92969c0,6.429 4.87372,10.9448 12.51172,11.7168c2.77,4.149 7.45461,6.68555 12.47461,6.68555c5.02,0 9.70461,-2.53655 12.47461,-6.68555c7.638,-0.772 12.51172,-5.2878 12.51172,-11.7168c0,-3.589 -1.52475,-7.15369 -4.09375,-9.92969c-1.01,0.616 -4.64891,2.63533 -10.75391,3.86133c0.11,0.129 0.19586,0.27278 0.25586,0.42578c0.193,0.49 0.12072,1.065 -0.23828,1.5c-0.297,0.359 -0.7252,0.54492 -1.1582,0.54492c-0.336,0 -0.67217,-0.11275 -0.95117,-0.34375c-2.228,-1.838 -4.70987,-2.65625 -8.04687,-2.65625c-3.337,0 -5.81887,0.8192 -8.04687,2.6582c-0.639,0.527 -1.58237,0.43588 -2.10937,-0.20312c-0.345,-0.419 -0.42381,-0.96636 -0.25781,-1.44336c0.06,-0.174 0.15234,-0.33938 0.27734,-0.48437c-6.105,-1.225 -9.74586,-3.24338 -10.75586,-3.85937zM44.07227,36.24609c0.56235,0.00484 1.11406,0.25609 1.44531,0.76172c0.529,0.809 0.32814,1.93483 -0.50586,2.42383c-1.93,1.133 -5.07473,1.99192 -7.80273,2.41992c-2.564,0.402 -5.13198,0.52794 -7.70898,0.46094c-0.724,-0.019 -1.29634,-0.6207 -1.27734,-1.3457c0.018,-0.698 0.57662,-1.2553 1.26563,-1.2793c2.408,-0.077 4.84359,-0.35756 7.18359,-0.85156c2.266,-0.479 5.02587,-1.53099 6.42188,-2.33398c0.30038,-0.17287 0.6411,-0.25877 0.97852,-0.25586z"></path></g></g></svg>